{
	"asset":{
		"generator":"Khronos glTF Blender I/O v4.5.47",
		"version":"2.0"
	},
	"scene":0,
	"scenes":[
		{
			"name":"Scene",
			"nodes":[
				0,
				1,
				2,
				3,
				4,
				5,
				6,
				7,
				8,
				9,
				10,
				11,
				12,
				13,
				14,
				15,
				16,
				17,
				18,
				19,
				20,
				21,
				22
			]
		}
	],
	"nodes":[
		{
			"mesh":0,
			"name":"Cube",
			"scale":[
				-0.1810319423675537,
				-0.7984836101531982,
				-0.1810319423675537
			],
			"translation":[
				0.7907829284667969,
				-4.2497053146362305,
				-0.04104528948664665
			]
		},
		{
			"mesh":1,
			"name":"Cube.001",
			"scale":[
				-0.1810319423675537,
				-0.7984836101531982,
				-0.1810319423675537
			],
			"translation":[
				0.6493961215019226,
				-1.5254740715026855,
				-0.04104528948664665
			]
		},
		{
			"mesh":2,
			"name":"Cube.002",
			"scale":[
				-0.262553870677948,
				-0.3724427819252014,
				-0.1810319423675537
			],
			"translation":[
				-0.11393626779317856,
				2.7994682788848877,
				-0.04104528948664665
			]
		},
		{
			"mesh":3,
			"name":"Cube.003",
			"scale":[
				-0.1810319423675537,
				-0.7984836101531982,
				-0.1810319423675537
			],
			"translation":[
				-0.5329576730728149,
				-1.7568838596343994,
				-0.04104528948664665
			]
		},
		{
			"mesh":4,
			"name":"Cube.004",
			"rotation":[
				-0.026559768244624138,
				0.2700289189815521,
				0.011512111872434616,
				0.9624170064926147
			],
			"scale":[
				-0.23993372917175293,
				-0.913500189781189,
				-0.2246721237897873
			],
			"translation":[
				-0.6930012702941895,
				-4.235583305358887,
				-0.04104528948664665
			]
		},
		{
			"mesh":5,
			"name":"Cube.005",
			"scale":[
				-0.1810319423675537,
				-0.7984836101531982,
				-0.1810319423675537
			],
			"translation":[
				-0.11393626779317856,
				1.1947530508041382,
				-0.04104528948664665
			]
		},
		{
			"mesh":6,
			"name":"Cube.006",
			"rotation":[
				0,
				0,
				-0.696219265460968,
				0.7178292274475098
			],
			"scale":[
				-0.1810319423675537,
				-0.7984836101531982,
				-0.1810319423675537
			],
			"translation":[
				3.0786685943603516,
				3.094871997833252,
				-0.04104528948664665
			]
		},
		{
			"mesh":7,
			"name":"Cube.007",
			"rotation":[
				0,
				0,
				-0.696219265460968,
				0.7178292274475098
			],
			"scale":[
				-0.2281356304883957,
				-0.9007011651992798,
				-0.1810319423675537
			],
			"translation":[
				-3.1919379234313965,
				2.908780813217163,
				-0.04104528948664665
			]
		},
		{
			"mesh":8,
			"name":"Cube.008",
			"rotation":[
				0,
				0,
				-0.696219265460968,
				0.7178292274475098
			],
			"scale":[
				-0.2281356304883957,
				-0.9007011651992798,
				-0.1810319423675537
			],
			"translation":[
				-7.118370056152344,
				2.908780813217163,
				-0.04104528948664665
			]
		},
		{
			"mesh":9,
			"name":"Cube.009",
			"rotation":[
				0,
				0,
				-0.696219265460968,
				0.7178292274475098
			],
			"scale":[
				-0.2281356304883957,
				-0.9007011651992798,
				-0.1810319423675537
			],
			"translation":[
				5.816429615020752,
				3.0210108757019043,
				-0.04104528948664665
			]
		},
		{
			"mesh":10,
			"name":"Cube.010",
			"rotation":[
				0,
				0,
				0.3021739721298218,
				0.9532527923583984
			],
			"scale":[
				0.7470843195915222,
				0.2699446380138397,
				0.3053988218307495
			],
			"translation":[
				1.521852970123291,
				3.5867855548858643,
				-0.028510093688964844
			]
		},
		{
			"mesh":11,
			"name":"Cube.011",
			"rotation":[
				0.1534690409898758,
				-0.06071515753865242,
				-0.259283185005188,
				0.9515950679779053
			],
			"scale":[
				0.6097709536552429,
				0.07875080406665802,
				0.07654669135808945
			],
			"translation":[
				0.5111712217330933,
				3.062020778656006,
				0.051251739263534546
			]
		},
		{
			"mesh":12,
			"name":"Cube.012",
			"rotation":[
				-0.1620568186044693,
				0.33509764075279236,
				-0.9218930006027222,
				0.10752035677433014
			],
			"scale":[
				0.6097709536552429,
				0.07875080406665802,
				0.07654669135808945
			],
			"translation":[
				-0.6768308877944946,
				3.062020778656006,
				0.051251739263534546
			]
		},
		{
			"mesh":13,
			"name":"Cube.013",
			"rotation":[
				-0.2264380007982254,
				0.29542961716651917,
				-0.8811377286911011,
				0.2916222810745239
			],
			"scale":[
				0.6097709536552429,
				0.07875080406665802,
				0.07654669135808945
			],
			"translation":[
				-0.523912787437439,
				2.4763946533203125,
				0.051251739263534546
			]
		},
		{
			"mesh":14,
			"name":"Cube.014",
			"rotation":[
				-0.2264380007982254,
				0.29542961716651917,
				-0.8811377286911011,
				0.2916222810745239
			],
			"scale":[
				0.6097709536552429,
				0.07875080406665802,
				0.07654669135808945
			],
			"translation":[
				-0.3025273084640503,
				1.9350857734680176,
				-0.0504738986492157
			]
		},
		{
			"mesh":15,
			"name":"Cube.015",
			"rotation":[
				0.44142022728919983,
				-0.3214779198169708,
				-0.15219257771968842,
				0.8237946033477783
			],
			"scale":[
				0.6097709536552429,
				0.07875080406665802,
				0.07654669135808945
			],
			"translation":[
				0.3436936140060425,
				2.483726978302002,
				0.051251739263534546
			]
		},
		{
			"mesh":16,
			"name":"Cube.016",
			"rotation":[
				0.44142022728919983,
				-0.3214779198169708,
				-0.15219257771968842,
				0.8237946033477783
			],
			"scale":[
				0.6097709536552429,
				0.07875080406665802,
				0.07654669135808945
			],
			"translation":[
				0.3436936140060425,
				1.8644587993621826,
				0.051251739263534546
			]
		},
		{
			"mesh":17,
			"name":"Cube.017",
			"rotation":[
				0.5956314206123352,
				0,
				0,
				0.8032580018043518
			],
			"scale":[
				0.6521574258804321,
				0.08663761615753174,
				1
			],
			"translation":[
				0,
				-0.8053533434867859,
				0.5281665325164795
			]
		},
		{
			"mesh":18,
			"name":"Cube.018",
			"scale":[
				-0.8398633599281311,
				-0.2704101800918579,
				-0.2704101800918579
			]
		},
		{
			"mesh":19,
			"name":"Plane",
			"rotation":[
				-0.6578474640846252,
				0,
				0,
				0.7531512379646301
			],
			"translation":[
				0,
				-0.5706200003623962,
				-0.3482349216938019
			]
		},
		{
			"mesh":20,
			"name":"Cylinder",
			"scale":[
				0.6511964201927185,
				0.6511964201927185,
				0.6511964201927185
			],
			"translation":[
				-0.08016307651996613,
				4.3628926277160645,
				0
			]
		},
		{
			"mesh":21,
			"name":"Cube.019",
			"scale":[
				0.3657875061035156,
				0.5678967237472534,
				0.3657875061035156
			],
			"translation":[
				-0.7061967849731445,
				-6.066667556762695,
				0
			]
		},
		{
			"mesh":22,
			"name":"Cube.020",
			"scale":[
				0.3657875061035156,
				0.5678967237472534,
				0.3657875061035156
			],
			"translation":[
				0.742331862449646,
				-6.066667556762695,
				0
			]
		}
	],
	"materials":[
		{
			"alphaMode":"BLEND",
			"doubleSided":true,
			"name":"texturritter1mediva",
			"pbrMetallicRoughness":{
				"baseColorTexture":{
					"index":0
				},
				"metallicFactor":0,
				"roughnessFactor":0.5
			}
		},
		{
			"alphaMode":"BLEND",
			"doubleSided":true,
			"name":"textureverzierung2",
			"pbrMetallicRoughness":{
				"baseColorTexture":{
					"index":1
				},
				"metallicFactor":0,
				"roughnessFactor":0.5
			}
		}
	],
	"meshes":[
		{
			"name":"Mesh",
			"primitives":[
				{
					"attributes":{
						"POSITION":0,
						"NORMAL":1,
						"TEXCOORD_0":2,
						"TANGENT":3
					},
					"indices":4
				}
			]
		},
		{
			"name":"Mesh",
			"primitives":[
				{
					"attributes":{
						"POSITION":5,
						"NORMAL":6,
						"TEXCOORD_0":7,
						"TANGENT":8
					},
					"indices":4
				}
			]
		},
		{
			"name":"Mesh",
			"primitives":[
				{
					"attributes":{
						"POSITION":9,
						"NORMAL":10,
						"TEXCOORD_0":11,
						"TANGENT":12
					},
					"indices":4
				}
			]
		},
		{
			"name":"Mesh",
			"primitives":[
				{
					"attributes":{
						"POSITION":13,
						"NORMAL":14,
						"TEXCOORD_0":15,
						"TANGENT":16
					},
					"indices":4
				}
			]
		},
		{
			"name":"Mesh",
			"primitives":[
				{
					"attributes":{
						"POSITION":17,
						"NORMAL":18,
						"TEXCOORD_0":19,
						"TANGENT":20
					},
					"indices":4
				}
			]
		},
		{
			"name":"Mesh",
			"primitives":[
				{
					"attributes":{
						"POSITION":21,
						"NORMAL":22,
						"TEXCOORD_0":23,
						"TANGENT":24
					},
					"indices":4
				}
			]
		},
		{
			"name":"Mesh",
			"primitives":[
				{
					"attributes":{
						"POSITION":25,
						"NORMAL":26,
						"TEXCOORD_0":27,
						"TANGENT":28
					},
					"indices":4
				}
			]
		},
		{
			"name":"Mesh",
			"primitives":[
				{
					"attributes":{
						"POSITION":29,
						"NORMAL":30,
						"TEXCOORD_0":31,
						"TANGENT":32
					},
					"indices":4
				}
			]
		},
		{
			"name":"Mesh",
			"primitives":[
				{
					"attributes":{
						"POSITION":33,
						"NORMAL":34,
						"TEXCOORD_0":35,
						"TANGENT":36
					},
					"indices":4
				}
			]
		},
		{
			"name":"Mesh",
			"primitives":[
				{
					"attributes":{
						"POSITION":37,
						"NORMAL":38,
						"TEXCOORD_0":39,
						"TANGENT":40
					},
					"indices":4
				}
			]
		},
		{
			"name":"Mesh",
			"primitives":[
				{
					"attributes":{
						"POSITION":41,
						"NORMAL":42,
						"TEXCOORD_0":43,
						"TANGENT":44
					},
					"indices":45,
					"material":0
				}
			]
		},
		{
			"name":"Mesh",
			"primitives":[
				{
					"attributes":{
						"POSITION":46,
						"NORMAL":47,
						"TEXCOORD_0":48,
						"TANGENT":49
					},
					"indices":50
				}
			]
		},
		{
			"name":"Mesh",
			"primitives":[
				{
					"attributes":{
						"POSITION":51,
						"NORMAL":52,
						"TEXCOORD_0":53,
						"TANGENT":54
					},
					"indices":50
				}
			]
		},
		{
			"name":"Mesh",
			"primitives":[
				{
					"attributes":{
						"POSITION":55,
						"NORMAL":56,
						"TEXCOORD_0":57,
						"TANGENT":58
					},
					"indices":50
				}
			]
		},
		{
			"name":"Mesh",
			"primitives":[
				{
					"attributes":{
						"POSITION":59,
						"NORMAL":60,
						"TEXCOORD_0":61,
						"TANGENT":62
					},
					"indices":50
				}
			]
		},
		{
			"name":"Mesh",
			"primitives":[
				{
					"attributes":{
						"POSITION":63,
						"NORMAL":64,
						"TEXCOORD_0":65,
						"TANGENT":66
					},
					"indices":50
				}
			]
		},
		{
			"name":"Mesh",
			"primitives":[
				{
					"attributes":{
						"POSITION":67,
						"NORMAL":68,
						"TEXCOORD_0":69,
						"TANGENT":70
					},
					"indices":50
				}
			]
		},
		{
			"name":"Cube.019",
			"primitives":[
				{
					"attributes":{
						"POSITION":71,
						"NORMAL":72,
						"TEXCOORD_0":73,
						"TANGENT":74
					},
					"indices":75,
					"material":1
				}
			]
		},
		{
			"name":"Cube.020",
			"primitives":[
				{
					"attributes":{
						"POSITION":76,
						"NORMAL":77,
						"TEXCOORD_0":78,
						"TANGENT":79
					},
					"indices":75,
					"material":1
				}
			]
		},
		{
			"name":"Plane",
			"primitives":[
				{
					"attributes":{
						"POSITION":80,
						"NORMAL":81,
						"TEXCOORD_0":82,
						"TANGENT":83
					},
					"indices":84,
					"material":1
				}
			]
		},
		{
			"name":"Cylinder",
			"primitives":[
				{
					"attributes":{
						"POSITION":85,
						"NORMAL":86,
						"TEXCOORD_0":87
					},
					"indices":88,
					"material":0
				}
			]
		},
		{
			"name":"Cube.021",
			"primitives":[
				{
					"attributes":{
						"POSITION":89,
						"NORMAL":90,
						"TEXCOORD_0":91,
						"TANGENT":92
					},
					"indices":75,
					"material":0
				}
			]
		},
		{
			"name":"Cube.022",
			"primitives":[
				{
					"attributes":{
						"POSITION":93,
						"NORMAL":94,
						"TEXCOORD_0":95,
						"TANGENT":96
					},
					"indices":75,
					"material":0
				}
			]
		}
	],
	"textures":[
		{
			"sampler":0,
			"source":0
		},
		{
			"sampler":0,
			"source":1
		}
	],
	"images":[
		{
			"mimeType":"image/png",
			"name":"texturritter1mediva.png",
			"uri":"../../texturritter1mediva.png"
		},
		{
			"mimeType":"image/png",
			"name":"textureverzierung2.png",
			"uri":"../../textureverzierung2.png"
		}
	],
	"accessors":[
		{
			"bufferView":0,
			"componentType":5126,
			"count":480,
			"max":[
				0.8090786933898926,
				1.2444086074829102,
				0.823712944984436
			],
			"min":[
				-0.9058452844619751,
				-1.536105990409851,
				-0.823712944984436
			],
			"type":"VEC3"
		},
		{
			"bufferView":1,
			"componentType":5126,
			"count":480,
			"type":"VEC3"
		},
		{
			"bufferView":2,
			"componentType":5126,
			"count":480,
			"type":"VEC2"
		},
		{
			"bufferView":3,
			"componentType":5126,
			"count":480,
			"type":"VEC4"
		},
		{
			"bufferView":4,
			"componentType":5123,
			"count":720,
			"type":"SCALAR"
		},
		{
			"bufferView":5,
			"componentType":5126,
			"count":480,
			"max":[
				0.8090786933898926,
				1.2444086074829102,
				0.823712944984436
			],
			"min":[
				-0.9058452844619751,
				-1.536105990409851,
				-0.823712944984436
			],
			"type":"VEC3"
		},
		{
			"bufferView":6,
			"componentType":5126,
			"count":480,
			"type":"VEC3"
		},
		{
			"bufferView":7,
			"componentType":5126,
			"count":480,
			"type":"VEC2"
		},
		{
			"bufferView":8,
			"componentType":5126,
			"count":480,
			"type":"VEC4"
		},
		{
			"bufferView":9,
			"componentType":5126,
			"count":480,
			"max":[
				0.8090786933898926,
				1.2444086074829102,
				0.823712944984436
			],
			"min":[
				-0.9058452844619751,
				-1.536105990409851,
				-0.823712944984436
			],
			"type":"VEC3"
		},
		{
			"bufferView":10,
			"componentType":5126,
			"count":480,
			"type":"VEC3"
		},
		{
			"bufferView":11,
			"componentType":5126,
			"count":480,
			"type":"VEC2"
		},
		{
			"bufferView":12,
			"componentType":5126,
			"count":480,
			"type":"VEC4"
		},
		{
			"bufferView":13,
			"componentType":5126,
			"count":480,
			"max":[
				0.8090786933898926,
				1.2444086074829102,
				0.823712944984436
			],
			"min":[
				-0.9058452844619751,
				-1.536105990409851,
				-0.823712944984436
			],
			"type":"VEC3"
		},
		{
			"bufferView":14,
			"componentType":5126,
			"count":480,
			"type":"VEC3"
		},
		{
			"bufferView":15,
			"componentType":5126,
			"count":480,
			"type":"VEC2"
		},
		{
			"bufferView":16,
			"componentType":5126,
			"count":480,
			"type":"VEC4"
		},
		{
			"bufferView":17,
			"componentType":5126,
			"count":480,
			"max":[
				0.8090786933898926,
				1.2444086074829102,
				0.823712944984436
			],
			"min":[
				-0.9058452844619751,
				-1.536105990409851,
				-0.823712944984436
			],
			"type":"VEC3"
		},
		{
			"bufferView":18,
			"componentType":5126,
			"count":480,
			"type":"VEC3"
		},
		{
			"bufferView":19,
			"componentType":5126,
			"count":480,
			"type":"VEC2"
		},
		{
			"bufferView":20,
			"componentType":5126,
			"count":480,
			"type":"VEC4"
		},
		{
			"bufferView":21,
			"componentType":5126,
			"count":480,
			"max":[
				0.8090786933898926,
				1.2444086074829102,
				0.823712944984436
			],
			"min":[
				-0.9058452844619751,
				-1.536105990409851,
				-0.823712944984436
			],
			"type":"VEC3"
		},
		{
			"bufferView":22,
			"componentType":5126,
			"count":480,
			"type":"VEC3"
		},
		{
			"bufferView":23,
			"componentType":5126,
			"count":480,
			"type":"VEC2"
		},
		{
			"bufferView":24,
			"componentType":5126,
			"count":480,
			"type":"VEC4"
		},
		{
			"bufferView":25,
			"componentType":5126,
			"count":480,
			"max":[
				0.8090786933898926,
				1.2444086074829102,
				0.823712944984436
			],
			"min":[
				-0.9058452844619751,
				-1.536105990409851,
				-0.823712944984436
			],
			"type":"VEC3"
		},
		{
			"bufferView":26,
			"componentType":5126,
			"count":480,
			"type":"VEC3"
		},
		{
			"bufferView":27,
			"componentType":5126,
			"count":480,
			"type":"VEC2"
		},
		{
			"bufferView":28,
			"componentType":5126,
			"count":480,
			"type":"VEC4"
		},
		{
			"bufferView":29,
			"componentType":5126,
			"count":480,
			"max":[
				0.8090786933898926,
				1.2444086074829102,
				0.823712944984436
			],
			"min":[
				-0.9058452844619751,
				-1.536105990409851,
				-0.823712944984436
			],
			"type":"VEC3"
		},
		{
			"bufferView":30,
			"componentType":5126,
			"count":480,
			"type":"VEC3"
		},
		{
			"bufferView":31,
			"componentType":5126,
			"count":480,
			"type":"VEC2"
		},
		{
			"bufferView":32,
			"componentType":5126,
			"count":480,
			"type":"VEC4"
		},
		{
			"bufferView":33,
			"componentType":5126,
			"count":480,
			"max":[
				0.8090786933898926,
				1.2444086074829102,
				0.823712944984436
			],
			"min":[
				-0.9058452844619751,
				-1.536105990409851,
				-0.823712944984436
			],
			"type":"VEC3"
		},
		{
			"bufferView":34,
			"componentType":5126,
			"count":480,
			"type":"VEC3"
		},
		{
			"bufferView":35,
			"componentType":5126,
			"count":480,
			"type":"VEC2"
		},
		{
			"bufferView":36,
			"componentType":5126,
			"count":480,
			"type":"VEC4"
		},
		{
			"bufferView":37,
			"componentType":5126,
			"count":480,
			"max":[
				0.8090786933898926,
				1.2444086074829102,
				0.823712944984436
			],
			"min":[
				-0.9058452844619751,
				-1.536105990409851,
				-0.823712944984436
			],
			"type":"VEC3"
		},
		{
			"bufferView":38,
			"componentType":5126,
			"count":480,
			"type":"VEC3"
		},
		{
			"bufferView":39,
			"componentType":5126,
			"count":480,
			"type":"VEC2"
		},
		{
			"bufferView":40,
			"componentType":5126,
			"count":480,
			"type":"VEC4"
		},
		{
			"bufferView":41,
			"componentType":5126,
			"count":352,
			"max":[
				0.9761440753936768,
				0.9149838089942932,
				0.9494664072990417
			],
			"min":[
				-0.9081636667251587,
				-2.9136457443237305,
				-0.9469494223594666
			],
			"type":"VEC3"
		},
		{
			"bufferView":42,
			"componentType":5126,
			"count":352,
			"type":"VEC3"
		},
		{
			"bufferView":43,
			"componentType":5126,
			"count":352,
			"type":"VEC2"
		},
		{
			"bufferView":44,
			"componentType":5126,
			"count":352,
			"type":"VEC4"
		},
		{
			"bufferView":45,
			"componentType":5123,
			"count":528,
			"type":"SCALAR"
		},
		{
			"bufferView":46,
			"componentType":5126,
			"count":224,
			"max":[
				0.979598343372345,
				0.9261908531188965,
				8.494771957397461
			],
			"min":[
				-0.863601803779602,
				-0.9261909127235413,
				-0.9166667461395264
			],
			"type":"VEC3"
		},
		{
			"bufferView":47,
			"componentType":5126,
			"count":224,
			"type":"VEC3"
		},
		{
			"bufferView":48,
			"componentType":5126,
			"count":224,
			"type":"VEC2"
		},
		{
			"bufferView":49,
			"componentType":5126,
			"count":224,
			"type":"VEC4"
		},
		{
			"bufferView":50,
			"componentType":5123,
			"count":336,
			"type":"SCALAR"
		},
		{
			"bufferView":51,
			"componentType":5126,
			"count":224,
			"max":[
				0.979598343372345,
				0.9261908531188965,
				8.494771957397461
			],
			"min":[
				-0.863601803779602,
				-0.9261909127235413,
				-0.9166667461395264
			],
			"type":"VEC3"
		},
		{
			"bufferView":52,
			"componentType":5126,
			"count":224,
			"type":"VEC3"
		},
		{
			"bufferView":53,
			"componentType":5126,
			"count":224,
			"type":"VEC2"
		},
		{
			"bufferView":54,
			"componentType":5126,
			"count":224,
			"type":"VEC4"
		},
		{
			"bufferView":55,
			"componentType":5126,
			"count":224,
			"max":[
				0.979598343372345,
				0.9261908531188965,
				8.494771957397461
			],
			"min":[
				-0.863601803779602,
				-0.9261909127235413,
				-0.9166667461395264
			],
			"type":"VEC3"
		},
		{
			"bufferView":56,
			"componentType":5126,
			"count":224,
			"type":"VEC3"
		},
		{
			"bufferView":57,
			"componentType":5126,
			"count":224,
			"type":"VEC2"
		},
		{
			"bufferView":58,
			"componentType":5126,
			"count":224,
			"type":"VEC4"
		},
		{
			"bufferView":59,
			"componentType":5126,
			"count":224,
			"max":[
				0.979598343372345,
				0.9261908531188965,
				8.494771957397461
			],
			"min":[
				-0.863601803779602,
				-0.9261909127235413,
				-0.9166667461395264
			],
			"type":"VEC3"
		},
		{
			"bufferView":60,
			"componentType":5126,
			"count":224,
			"type":"VEC3"
		},
		{
			"bufferView":61,
			"componentType":5126,
			"count":224,
			"type":"VEC2"
		},
		{
			"bufferView":62,
			"componentType":5126,
			"count":224,
			"type":"VEC4"
		},
		{
			"bufferView":63,
			"componentType":5126,
			"count":224,
			"max":[
				0.979598343372345,
				0.9261908531188965,
				8.494771957397461
			],
			"min":[
				-0.863601803779602,
				-0.9261909127235413,
				-0.9166667461395264
			],
			"type":"VEC3"
		},
		{
			"bufferView":64,
			"componentType":5126,
			"count":224,
			"type":"VEC3"
		},
		{
			"bufferView":65,
			"componentType":5126,
			"count":224,
			"type":"VEC2"
		},
		{
			"bufferView":66,
			"componentType":5126,
			"count":224,
			"type":"VEC4"
		},
		{
			"bufferView":67,
			"componentType":5126,
			"count":224,
			"max":[
				0.979598343372345,
				0.9261908531188965,
				8.494771957397461
			],
			"min":[
				-0.863601803779602,
				-0.9261909127235413,
				-0.9166667461395264
			],
			"type":"VEC3"
		},
		{
			"bufferView":68,
			"componentType":5126,
			"count":224,
			"type":"VEC3"
		},
		{
			"bufferView":69,
			"componentType":5126,
			"count":224,
			"type":"VEC2"
		},
		{
			"bufferView":70,
			"componentType":5126,
			"count":224,
			"type":"VEC4"
		},
		{
			"bufferView":71,
			"componentType":5126,
			"count":24,
			"max":[
				1,
				1,
				1
			],
			"min":[
				-1,
				-1,
				-1
			],
			"type":"VEC3"
		},
		{
			"bufferView":72,
			"componentType":5126,
			"count":24,
			"type":"VEC3"
		},
		{
			"bufferView":73,
			"componentType":5126,
			"count":24,
			"type":"VEC2"
		},
		{
			"bufferView":74,
			"componentType":5126,
			"count":24,
			"type":"VEC4"
		},
		{
			"bufferView":75,
			"componentType":5123,
			"count":36,
			"type":"SCALAR"
		},
		{
			"bufferView":76,
			"componentType":5126,
			"count":24,
			"max":[
				1,
				1,
				1
			],
			"min":[
				-1,
				-1,
				-1
			],
			"type":"VEC3"
		},
		{
			"bufferView":77,
			"componentType":5126,
			"count":24,
			"type":"VEC3"
		},
		{
			"bufferView":78,
			"componentType":5126,
			"count":24,
			"type":"VEC2"
		},
		{
			"bufferView":79,
			"componentType":5126,
			"count":24,
			"type":"VEC4"
		},
		{
			"bufferView":80,
			"componentType":5126,
			"count":4,
			"max":[
				1,
				0,
				1
			],
			"min":[
				-1,
				0,
				-1
			],
			"type":"VEC3"
		},
		{
			"bufferView":81,
			"componentType":5126,
			"count":4,
			"type":"VEC3"
		},
		{
			"bufferView":82,
			"componentType":5126,
			"count":4,
			"type":"VEC2"
		},
		{
			"bufferView":83,
			"componentType":5126,
			"count":4,
			"type":"VEC4"
		},
		{
			"bufferView":84,
			"componentType":5123,
			"count":6,
			"type":"SCALAR"
		},
		{
			"bufferView":85,
			"componentType":5126,
			"count":424,
			"max":[
				1,
				1,
				1
			],
			"min":[
				-1,
				-1,
				-1
			],
			"type":"VEC3"
		},
		{
			"bufferView":86,
			"componentType":5126,
			"count":424,
			"type":"VEC3"
		},
		{
			"bufferView":87,
			"componentType":5126,
			"count":424,
			"type":"VEC2"
		},
		{
			"bufferView":88,
			"componentType":5123,
			"count":876,
			"type":"SCALAR"
		},
		{
			"bufferView":89,
			"componentType":5126,
			"count":24,
			"max":[
				1,
				1,
				1
			],
			"min":[
				-1,
				-1,
				-1
			],
			"type":"VEC3"
		},
		{
			"bufferView":90,
			"componentType":5126,
			"count":24,
			"type":"VEC3"
		},
		{
			"bufferView":91,
			"componentType":5126,
			"count":24,
			"type":"VEC2"
		},
		{
			"bufferView":92,
			"componentType":5126,
			"count":24,
			"type":"VEC4"
		},
		{
			"bufferView":93,
			"componentType":5126,
			"count":24,
			"max":[
				1,
				1,
				1
			],
			"min":[
				-1,
				-1,
				-1
			],
			"type":"VEC3"
		},
		{
			"bufferView":94,
			"componentType":5126,
			"count":24,
			"type":"VEC3"
		},
		{
			"bufferView":95,
			"componentType":5126,
			"count":24,
			"type":"VEC2"
		},
		{
			"bufferView":96,
			"componentType":5126,
			"count":24,
			"type":"VEC4"
		}
	],
	"bufferViews":[
		{
			"buffer":0,
			"byteLength":5760,
			"byteOffset":0,
			"target":34962
		},
		{
			"buffer":0,
			"byteLength":5760,
			"byteOffset":5760,
			"target":34962
		},
		{
			"buffer":0,
			"byteLength":3840,
			"byteOffset":11520,
			"target":34962
		},
		{
			"buffer":0,
			"byteLength":7680,
			"byteOffset":15360,
			"target":34962
		},
		{
			"buffer":0,
			"byteLength":1440,
			"byteOffset":23040,
			"target":34963
		},
		{
			"buffer":0,
			"byteLength":5760,
			"byteOffset":24480,
			"target":34962
		},
		{
			"buffer":0,
			"byteLength":5760,
			"byteOffset":30240,
			"target":34962
		},
		{
			"buffer":0,
			"byteLength":3840,
			"byteOffset":36000,
			"target":34962
		},
		{
			"buffer":0,
			"byteLength":7680,
			"byteOffset":39840,
			"target":34962
		},
		{
			"buffer":0,
			"byteLength":5760,
			"byteOffset":47520,
			"target":34962
		},
		{
			"buffer":0,
			"byteLength":5760,
			"byteOffset":53280,
			"target":34962
		},
		{
			"buffer":0,
			"byteLength":3840,
			"byteOffset":59040,
			"target":34962
		},
		{
			"buffer":0,
			"byteLength":7680,
			"byteOffset":62880,
			"target":34962
		},
		{
			"buffer":0,
			"byteLength":5760,
			"byteOffset":70560,
			"target":34962
		},
		{
			"buffer":0,
			"byteLength":5760,
			"byteOffset":76320,
			"target":34962
		},
		{
			"buffer":0,
			"byteLength":3840,
			"byteOffset":82080,
			"target":34962
		},
		{
			"buffer":0,
			"byteLength":7680,
			"byteOffset":85920,
			"target":34962
		},
		{
			"buffer":0,
			"byteLength":5760,
			"byteOffset":93600,
			"target":34962
		},
		{
			"buffer":0,
			"byteLength":5760,
			"byteOffset":99360,
			"target":34962
		},
		{
			"buffer":0,
			"byteLength":3840,
			"byteOffset":105120,
			"target":34962
		},
		{
			"buffer":0,
			"byteLength":7680,
			"byteOffset":108960,
			"target":34962
		},
		{
			"buffer":0,
			"byteLength":5760,
			"byteOffset":116640,
			"target":34962
		},
		{
			"buffer":0,
			"byteLength":5760,
			"byteOffset":122400,
			"target":34962
		},
		{
			"buffer":0,
			"byteLength":3840,
			"byteOffset":128160,
			"target":34962
		},
		{
			"buffer":0,
			"byteLength":7680,
			"byteOffset":132000,
			"target":34962
		},
		{
			"buffer":0,
			"byteLength":5760,
			"byteOffset":139680,
			"target":34962
		},
		{
			"buffer":0,
			"byteLength":5760,
			"byteOffset":145440,
			"target":34962
		},
		{
			"buffer":0,
			"byteLength":3840,
			"byteOffset":151200,
			"target":34962
		},
		{
			"buffer":0,
			"byteLength":7680,
			"byteOffset":155040,
			"target":34962
		},
		{
			"buffer":0,
			"byteLength":5760,
			"byteOffset":162720,
			"target":34962
		},
		{
			"buffer":0,
			"byteLength":5760,
			"byteOffset":168480,
			"target":34962
		},
		{
			"buffer":0,
			"byteLength":3840,
			"byteOffset":174240,
			"target":34962
		},
		{
			"buffer":0,
			"byteLength":7680,
			"byteOffset":178080,
			"target":34962
		},
		{
			"buffer":0,
			"byteLength":5760,
			"byteOffset":185760,
			"target":34962
		},
		{
			"buffer":0,
			"byteLength":5760,
			"byteOffset":191520,
			"target":34962
		},
		{
			"buffer":0,
			"byteLength":3840,
			"byteOffset":197280,
			"target":34962
		},
		{
			"buffer":0,
			"byteLength":7680,
			"byteOffset":201120,
			"target":34962
		},
		{
			"buffer":0,
			"byteLength":5760,
			"byteOffset":208800,
			"target":34962
		},
		{
			"buffer":0,
			"byteLength":5760,
			"byteOffset":214560,
			"target":34962
		},
		{
			"buffer":0,
			"byteLength":3840,
			"byteOffset":220320,
			"target":34962
		},
		{
			"buffer":0,
			"byteLength":7680,
			"byteOffset":224160,
			"target":34962
		},
		{
			"buffer":0,
			"byteLength":4224,
			"byteOffset":231840,
			"target":34962
		},
		{
			"buffer":0,
			"byteLength":4224,
			"byteOffset":236064,
			"target":34962
		},
		{
			"buffer":0,
			"byteLength":2816,
			"byteOffset":240288,
			"target":34962
		},
		{
			"buffer":0,
			"byteLength":5632,
			"byteOffset":243104,
			"target":34962
		},
		{
			"buffer":0,
			"byteLength":1056,
			"byteOffset":248736,
			"target":34963
		},
		{
			"buffer":0,
			"byteLength":2688,
			"byteOffset":249792,
			"target":34962
		},
		{
			"buffer":0,
			"byteLength":2688,
			"byteOffset":252480,
			"target":34962
		},
		{
			"buffer":0,
			"byteLength":1792,
			"byteOffset":255168,
			"target":34962
		},
		{
			"buffer":0,
			"byteLength":3584,
			"byteOffset":256960,
			"target":34962
		},
		{
			"buffer":0,
			"byteLength":672,
			"byteOffset":260544,
			"target":34963
		},
		{
			"buffer":0,
			"byteLength":2688,
			"byteOffset":261216,
			"target":34962
		},
		{
			"buffer":0,
			"byteLength":2688,
			"byteOffset":263904,
			"target":34962
		},
		{
			"buffer":0,
			"byteLength":1792,
			"byteOffset":266592,
			"target":34962
		},
		{
			"buffer":0,
			"byteLength":3584,
			"byteOffset":268384,
			"target":34962
		},
		{
			"buffer":0,
			"byteLength":2688,
			"byteOffset":271968,
			"target":34962
		},
		{
			"buffer":0,
			"byteLength":2688,
			"byteOffset":274656,
			"target":34962
		},
		{
			"buffer":0,
			"byteLength":1792,
			"byteOffset":277344,
			"target":34962
		},
		{
			"buffer":0,
			"byteLength":3584,
			"byteOffset":279136,
			"target":34962
		},
		{
			"buffer":0,
			"byteLength":2688,
			"byteOffset":282720,
			"target":34962
		},
		{
			"buffer":0,
			"byteLength":2688,
			"byteOffset":285408,
			"target":34962
		},
		{
			"buffer":0,
			"byteLength":1792,
			"byteOffset":288096,
			"target":34962
		},
		{
			"buffer":0,
			"byteLength":3584,
			"byteOffset":289888,
			"target":34962
		},
		{
			"buffer":0,
			"byteLength":2688,
			"byteOffset":293472,
			"target":34962
		},
		{
			"buffer":0,
			"byteLength":2688,
			"byteOffset":296160,
			"target":34962
		},
		{
			"buffer":0,
			"byteLength":1792,
			"byteOffset":298848,
			"target":34962
		},
		{
			"buffer":0,
			"byteLength":3584,
			"byteOffset":300640,
			"target":34962
		},
		{
			"buffer":0,
			"byteLength":2688,
			"byteOffset":304224,
			"target":34962
		},
		{
			"buffer":0,
			"byteLength":2688,
			"byteOffset":306912,
			"target":34962
		},
		{
			"buffer":0,
			"byteLength":1792,
			"byteOffset":309600,
			"target":34962
		},
		{
			"buffer":0,
			"byteLength":3584,
			"byteOffset":311392,
			"target":34962
		},
		{
			"buffer":0,
			"byteLength":288,
			"byteOffset":314976,
			"target":34962
		},
		{
			"buffer":0,
			"byteLength":288,
			"byteOffset":315264,
			"target":34962
		},
		{
			"buffer":0,
			"byteLength":192,
			"byteOffset":315552,
			"target":34962
		},
		{
			"buffer":0,
			"byteLength":384,
			"byteOffset":315744,
			"target":34962
		},
		{
			"buffer":0,
			"byteLength":72,
			"byteOffset":316128,
			"target":34963
		},
		{
			"buffer":0,
			"byteLength":288,
			"byteOffset":316200,
			"target":34962
		},
		{
			"buffer":0,
			"byteLength":288,
			"byteOffset":316488,
			"target":34962
		},
		{
			"buffer":0,
			"byteLength":192,
			"byteOffset":316776,
			"target":34962
		},
		{
			"buffer":0,
			"byteLength":384,
			"byteOffset":316968,
			"target":34962
		},
		{
			"buffer":0,
			"byteLength":48,
			"byteOffset":317352,
			"target":34962
		},
		{
			"buffer":0,
			"byteLength":48,
			"byteOffset":317400,
			"target":34962
		},
		{
			"buffer":0,
			"byteLength":32,
			"byteOffset":317448,
			"target":34962
		},
		{
			"buffer":0,
			"byteLength":64,
			"byteOffset":317480,
			"target":34962
		},
		{
			"buffer":0,
			"byteLength":12,
			"byteOffset":317544,
			"target":34963
		},
		{
			"buffer":0,
			"byteLength":5088,
			"byteOffset":317556,
			"target":34962
		},
		{
			"buffer":0,
			"byteLength":5088,
			"byteOffset":322644,
			"target":34962
		},
		{
			"buffer":0,
			"byteLength":3392,
			"byteOffset":327732,
			"target":34962
		},
		{
			"buffer":0,
			"byteLength":1752,
			"byteOffset":331124,
			"target":34963
		},
		{
			"buffer":0,
			"byteLength":288,
			"byteOffset":332876,
			"target":34962
		},
		{
			"buffer":0,
			"byteLength":288,
			"byteOffset":333164,
			"target":34962
		},
		{
			"buffer":0,
			"byteLength":192,
			"byteOffset":333452,
			"target":34962
		},
		{
			"buffer":0,
			"byteLength":384,
			"byteOffset":333644,
			"target":34962
		},
		{
			"buffer":0,
			"byteLength":288,
			"byteOffset":334028,
			"target":34962
		},
		{
			"buffer":0,
			"byteLength":288,
			"byteOffset":334316,
			"target":34962
		},
		{
			"buffer":0,
			"byteLength":192,
			"byteOffset":334604,
			"target":34962
		},
		{
			"buffer":0,
			"byteLength":384,
			"byteOffset":334796,
			"target":34962
		}
	],
	"samplers":[
		{
			"magFilter":9729,
			"minFilter":9987,
			"wrapS":33071,
			"wrapT":33071
		}
	],
	"buffers":[
		{
			"byteLength":335180,
			"uri":"skelletongudmediva-65ee54250a12c57ed716d79f522e7519.bin"
		}
	]
}
